HIERARCHY
ROOT Hips
{
	OFFSET 0.00000 0.00000 0.00000
	CHANNELS 6 Xposition Yposition Zposition Zrotation Yrotation Xrotation 
	JOINT LHipJoint
	{
		OFFSET 0 0 0
		CHANNELS 3 Zrotation Yrotation Xrotation
		JOINT LeftHip
		{
			OFFSET 1.58895 -1.83665 0.71753
			CHANNELS 3 Zrotation Yrotation Xrotation
			JOINT LeftKnee
			{
				OFFSET 2.50528 -6.88321 0.00000
				CHANNELS 3 Zrotation Yrotation Xrotation
				JOINT LeftAnkle
				{
					OFFSET 2.63244 -7.23257 0.00000
					CHANNELS 3 Zrotation Yrotation Xrotation
					JOINT LeftToe
					{
						OFFSET 0.23691 -0.65090 1.72750
						CHANNELS 3 Zrotation Yrotation Xrotation
						End Site
						{
							OFFSET 0.00000 -0.00000 0.92561
						}
					}
				}
			}
		}
	}
	JOINT RHipJoint
	{
		OFFSET 0 0 0
		CHANNELS 3 Zrotation Yrotation Xrotation
		JOINT RightHip
		{
			OFFSET -1.51435 -1.83665 0.71753
			CHANNELS 3 Zrotation Yrotation Xrotation
			JOINT RightKnee
			{
				OFFSET -2.54551 -6.99375 0.00000
				CHANNELS 3 Zrotation Yrotation Xrotation
				JOINT RightAnkle
				{
					OFFSET -2.66027 -7.30903 0.00000
					CHANNELS 3 Zrotation Yrotation Xrotation
					JOINT RightToe
					{
						OFFSET -0.22981 -0.63138 2.03959
						CHANNELS 3 Zrotation Yrotation Xrotation
						End Site
						{
							OFFSET -0.00000 -0.00000 1.07060
						}
					}
				}
			}
		}
	}
	JOINT lowerback
	{
		OFFSET 0 0 0
		CHANNELS 3 Zrotation Yrotation Xrotation
		JOINT Chest
		{
			OFFSET -0.02651 1.86275 -0.11152
			CHANNELS 3 Zrotation Yrotation Xrotation
			JOINT Chest2
			{
				OFFSET 0.01019 1.86224 0.04087
				CHANNELS 3 Zrotation Yrotation Xrotation
				JOINT lowerneck
				{
					OFFSET 0 0 0
					CHANNELS 3 Zrotation Yrotation Xrotation
					JOINT Neck
					{
						OFFSET -0.01926 1.80512 0.08867
						CHANNELS 3 Zrotation Yrotation Xrotation
						JOINT Head
						{
							OFFSET 0.05516 1.76451 -0.38475
							CHANNELS 3 Zrotation Yrotation Xrotation
							End Site
							{
								OFFSET 0.01592 1.82587 -0.14001
							}
						}
					}
				}
				JOINT LeftCollar
				{
					OFFSET 0 0 0
					CHANNELS 3 Zrotation Yrotation Xrotation
					JOINT LeftShoulder
					{
						OFFSET 3.47116 1.51376 0.14491
CHANNELS 3 Zrotation Xrotation Yrotation
						JOINT LeftElbow
						{
OFFSET 0 -4.780950 0.000000
CHANNELS 3 Zrotation Xrotation Yrotation
							JOINT LeftWrist
							{
OFFSET 0 -3.586150 -0.000000
CHANNELS 3 Zrotation Xrotation Yrotation
								JOINT lhand
								{
									OFFSET 0 0 0
CHANNELS 3 Zrotation Xrotation Yrotation
									JOINT LFingers
									{
OFFSET 0 -0.659810 0.000000
CHANNELS 3 Zrotation Xrotation Yrotation
										End Site
										{
OFFSET 0 -0.531960 0.000000
										}
									}
								}
								JOINT LThumb
								{
OFFSET 0 0.000000 0.000000
CHANNELS 3 Zrotation Xrotation Yrotation
									End Site
									{
OFFSET 0 -0.540080 0.540080
									}
								}
							}
						}
					}
				}
				JOINT RightCollar
				{
					OFFSET 0 0 0
					CHANNELS 3 Zrotation Yrotation Xrotation
					JOINT RightShoulder
					{
						OFFSET -3.31725 1.61216 0.35156
CHANNELS 3 Zrotation Xrotation Yrotation
						JOINT RightElbow
						{
OFFSET 0 -4.489130 0.000000
CHANNELS 3 Zrotation Xrotation Yrotation
							JOINT RightWrist
							{
OFFSET 0 -3.705100 0.000000
CHANNELS 3 Zrotation Xrotation Yrotation
								JOINT rhand
								{
									OFFSET 0 0 0
CHANNELS 3 Zrotation Xrotation Yrotation
									JOINT RFingers
									{
OFFSET 0 -0.449140 0.000000
CHANNELS 3 Zrotation Xrotation Yrotation
										End Site
										{
OFFSET 0 -0.362110 0.000000
										}
									}
								}
								JOINT RThumb
								{
OFFSET 0 0.000000 0.000000
CHANNELS 3 Zrotation Xrotation Yrotation
									End Site
									{
OFFSET 0 -0.367630 0.367630
									}
								}
							}
						}
					}
				}
			}
		}
	}
}
MOTION
Frames: 5
Frame Time: 0.008333333333333333
-0.328618 18.464837 4.190799 -9.321735 -3.510147 14.334439 0.000000 0.000000 0.000000 -1.908266 -5.560911 -34.113879 4.511469 12.811593 38.667251 1.227184 0.107609 -20.991842 8.549739 -16.509055 -54.519434 0.000000 0.000000 0.000000 21.174723 8.947553 -19.094878 -0.666766 -5.222053 14.542903 -0.624634 -4.225818 -17.063526 -0.310674 3.582910 -9.906181 -3.878270 0.468905 26.603065 1.308396 -0.318182 9.382448 3.753917 -0.259387 -4.253314 -17.571002 -17.442130 10.637384 19.709305 -27.024863 14.100826 7.166296 -13.672777 7.832475 0.000000 0.000000 0.000000 7.360781 6.902201 -27.446669 59.272616 -56.112931 33.736550 10.690529 -21.085537 24.285499 0.000000 0.000000 0.000000 -7.125000 0.000000 0.000000 -11.462829 5.726476 -10.478593 0.000000 0.000000 0.000000 -79.795096 -72.917605 7.596279 -67.106139 -57.923517 -40.311596 45.901501 -47.401596 38.554428 0.000000 0.000000 0.000000 7.125000 0.000000 0.000000 79.120916 52.652300 -28.527857
-0.346433 18.469421 4.214809 -9.199262 -3.315197 14.361239 0.000000 0.000000 0.000000 -1.974511 -5.742272 -33.994052 4.478949 12.771842 38.520321 1.224979 0.136081 -20.982444 8.557791 -16.514561 -54.547786 0.000000 0.000000 0.000000 21.109604 8.854309 -19.079672 -0.669547 -5.232628 14.573294 -0.645598 -4.151740 -17.252118 -0.278706 3.395538 -9.381899 -3.798667 0.470754 26.302135 1.437575 -0.275629 9.120041 3.835620 -0.228988 -4.403899 -17.439435 -17.450137 10.393237 19.712624 -26.985871 13.930341 7.134524 -13.635404 7.787988 0.000000 0.000000 0.000000 7.181926 6.833893 -27.516522 59.177627 -56.086747 33.657742 10.518668 -20.772886 24.034168 0.000000 0.000000 0.000000 -7.125000 0.000000 0.000000 -11.560315 5.993802 -10.511279 0.000000 0.000000 0.000000 -79.648175 -74.339732 3.267857 -68.212062 -58.127789 -41.249753 48.550528 -48.177449 39.217049 0.000000 0.000000 0.000000 7.125000 0.000000 0.000000 81.634191 52.418716 -30.323946
-0.362051 18.472860 4.230054 -9.038378 -3.057665 14.490870 0.000000 0.000000 0.000000 -2.043918 -6.015966 -34.039594 4.451248 12.737806 38.394669 1.224000 0.179482 -20.989443 8.526877 -16.493397 -54.438966 0.000000 0.000000 0.000000 20.996945 8.730000 -19.249079 -0.675447 -5.255429 14.638483 -0.660944 -4.152787 -17.424329 -0.284469 3.430288 -9.479164 -3.728863 0.514078 26.045962 1.549715 -0.185454 8.799777 3.891778 -0.171661 -4.643442 -17.313740 -17.436456 10.382098 19.821176 -26.963942 13.812222 7.159944 -13.618564 7.744148 0.000000 0.000000 0.000000 7.112785 6.768113 -27.740910 59.051169 -56.051737 33.552793 10.170279 -20.395946 23.997901 0.000000 0.000000 0.000000 -7.125000 0.000000 0.000000 -11.772781 6.067833 -10.696065 0.000000 0.000000 0.000000 -81.355286 -75.618475 -2.233147 -68.275604 -58.139336 -41.303656 50.789303 -48.942283 39.639930 0.000000 0.000000 0.000000 7.125000 0.000000 0.000000 83.560598 52.162121 -31.608014
-0.380339 18.478249 4.241188 -8.951122 -2.815437 14.570810 0.000000 0.000000 0.000000 -2.021644 -6.272908 -34.004466 4.416634 12.695088 38.237517 1.219164 0.221794 -20.962875 8.529778 -16.495479 -54.449363 0.000000 0.000000 0.000000 21.006646 8.512631 -19.390222 -0.679929 -5.272454 14.687240 -0.666397 -4.124965 -17.466954 -0.312826 3.595758 -9.942148 -3.627397 0.578552 26.024311 1.651006 -0.069697 8.425192 3.914194 -0.097058 -5.059235 -17.184337 -17.429756 10.431958 19.894601 -26.922663 13.520496 7.184530 -13.602071 7.622511 0.000000 0.000000 0.000000 7.034855 6.778924 -27.870306 58.906048 -56.011292 33.432396 9.980792 -19.938988 23.823667 0.000000 0.000000 0.000000 -7.125000 0.000000 0.000000 -11.884418 6.260025 -10.757329 0.000000 0.000000 0.000000 -82.842384 -76.749682 -7.180514 -67.320581 -57.964065 -40.493321 53.469630 -49.850120 39.358311 0.000000 0.000000 0.000000 7.125000 0.000000 0.000000 84.716973 51.576076 -31.287738
-0.392764 18.482941 4.259765 -8.793088 -2.536760 14.631243 0.000000 0.000000 0.000000 -2.126942 -6.502573 -33.966101 4.382898 12.653291 38.084006 1.211268 0.225019 -20.895807 8.543095 -16.504497 -54.496084 0.000000 0.000000 0.000000 20.925921 8.203402 -19.528501 -0.684928 -5.291228 14.741020 -0.672523 -4.030453 -17.475815 -0.314347 3.604170 -9.965713 -3.511538 0.633616 25.884157 1.730105 0.041215 8.163770 3.902084 -0.031380 -5.291455 -17.058973 -17.551185 10.035826 19.922980 -27.044916 13.458364 7.113951 -13.629085 7.678529 0.000000 0.000000 0.000000 6.909138 6.620886 -27.951397 58.671014 -55.945271 33.237687 9.662083 -19.386221 23.910252 0.000000 0.000000 0.000000 -7.125000 0.000000 0.000000 -12.081935 6.208702 -10.956835 0.000000 0.000000 0.000000 -84.009851 -77.310235 -11.217385 -66.201537 -57.747849 -39.545734 55.669159 -50.629535 38.630432 0.000000 0.000000 0.000000 7.125000 0.000000 0.000000 84.854128 50.952128 -29.700886
